<svg xmlns="http://www.w3.org/2000/svg" width="146.28" height="50.07" viewBox="0 0 146.28 50.07"><defs><style>.cls-1{fill:#1093cf;}.cls-2{fill:#f78e20;}.cls-3{fill:#086aac;}</style></defs><g id="Layer_2" data-name="Layer 2"><g id="Layer_1-2" data-name="Layer 1"><path class="cls-1" d="M37.33,1l8.92,10.06.54.61c3.84,4.77-.63,15.86-10.12,25.77C27,47.58,15.89,52.91,10.75,48.52L0,39.91c2.07,1.3,5.68.65,10-1.55l.27-.13.16-.09A60.44,60.44,0,0,0,25.06,26.59,60.66,60.66,0,0,0,36,11.41c0-.07.06-.12.08-.18L36.2,11C38.18,6.64,38.68,3,37.33,1"/><path class="cls-2" d="M38.57,41.08c-2.48,2.6-3.17,6-1.55,7.51s4.94.69,7.42-1.91,3.18-6,1.56-7.5-5-.7-7.43,1.9"/><path class="cls-3" d="M34.62,1.06C30.91-2.5,19.86,3.22,9.73,13.78c-.75.78-1.46,1.66-2.15,2.52l9.12,8.43c.73-.87,1.33-1.53,2.15-2.38,4.89-5.11,10-9.09,14.66-10.67,2.3-4.86,3-8.78,1.11-10.62"/><path class="cls-3" d="M71.43,13h3.13v7.81s0,2.08,3.23,2.08c1.06,0,3.33.37,3.33-2.82v-7h3.1v7.67S84.84,25,77.51,25c-1.22,0-6.05-.28-6.05-4s0-8,0-8"/><path class="cls-3" d="M115.37,13v2.17H109a3,3,0,0,0-3.52,3.23c0,.57-.6,4.23,3.06,4.23h3.7V19.89h-4V17.71h7.27v7.08H109s-7.16,1.12-7.16-6.07A5.52,5.52,0,0,1,107.64,13c4.58,0,7.73-.06,7.73-.06"/><path class="cls-3" d="M94.43,18h-4.3V15.11h4.35c1.59,0,2.13.69,2.13,1.41,0,1.81-2.18,1.52-2.18,1.52m2.44,1.86a3.31,3.31,0,0,0,2.9-3.38c0-3.93-4.69-3.47-4.69-3.47H87V24.89h3.1V20.22l3.66,0L97,24.83h3.52Z"/><path class="cls-3" d="M63.31,17.74H58.65V15.16s3.61-.06,4.69-.06,1.76.63,1.76,1.25c0,1.71-1.79,1.39-1.79,1.39m.08,4.84h-4.8V20l4.83,0c1.4,0,1.68.68,1.68,1.19a1.4,1.4,0,0,1-1.71,1.43m3-3.73a2.86,2.86,0,0,0,2.14-2.75c0-2.22-2.25-3.05-4.18-3.05l-8.9,0V24.82h8.28s4.77.31,4.77-3.1a2.83,2.83,0,0,0-2.11-2.87"/><path class="cls-3" d="M63.31,33.81H58.64V31.23s3.61-.06,4.69-.06,1.77.63,1.77,1.25c0,1.71-1.79,1.39-1.79,1.39m.08,4.84h-4.8V36.06l4.83,0c1.39,0,1.68.68,1.68,1.19a1.4,1.4,0,0,1-1.71,1.43m3-3.73a2.85,2.85,0,0,0,2.12-2.76c0-2.21-2.24-3-4.17-3l-8.9,0V40.89h8.27s4.78.31,4.78-3.1a2.82,2.82,0,0,0-2.1-2.87"/><polygon class="cls-3" points="101.2 29 101.29 40.9 104.41 40.9 104.41 35.12 109.9 40.8 113.89 40.8 107.99 34.71 113.79 29 110.06 29 104.41 34.55 104.41 29 101.2 29"/><path class="cls-3" d="M74.41,35.9l2.06-4.36,2.07,4.36ZM78.14,29H74.82L68.69,40.88h3.39l1.29-2.76h6.3L81,40.82h3.45Z"/><polygon class="cls-3" points="85.43 29.08 89.43 29.08 95.3 37.35 95.3 29.02 98.28 29.02 98.28 40.89 94.86 40.89 88.57 32.24 88.57 40.83 85.55 40.83 85.43 29.08"/><path class="cls-3" d="M122.63,19.87l2.06-4.36,2.06,4.36ZM126.35,13H123l-6.12,11.87h3.38l1.3-2.77h6.3l1.29,2.7h3.44Z"/><polygon class="cls-3" points="133.43 13.04 137.43 13.04 143.3 21.31 143.3 12.98 146.28 12.98 146.28 24.86 142.87 24.86 136.57 16.21 136.57 24.79 133.55 24.79 133.43 13.04"/></g></g></svg>