<?xml version="1.0" encoding="utf-8"?>
<!-- Generator: Adobe Illustrator 26.1.0, SVG Export Plug-In . SVG Version: 6.00 Build 0)  -->
<svg version="1.1" id="Calque_1" xmlns="http://www.w3.org/2000/svg" xmlns:xlink="http://www.w3.org/1999/xlink" x="0px" y="0px"
	 viewBox="0 0 2500 841.6" style="enable-background:new 0 0 2500 841.6;" xml:space="preserve">
<style type="text/css">
	.st0{fill:#FFFFFF;}
</style>
<path class="st0" d="M37.9,525.7c0-35.3-0.6-64.8-2.5-91.3h66.7l3.2,45.3h1.8c15.1-23.9,42.8-52.3,94.4-52.3
	c40.3,0,71.7,22.7,85,56.7h1.3c10.7-17,23.3-29.6,37.7-38.4c17-12,36.6-18.3,61.7-18.3c51,0,102.6,34.6,102.6,132.9V741h-75.5V571.7
	c0-51-17.6-81.2-54.8-81.2c-26.4,0-46,18.9-54.1,41c-2.3,8.4-3.5,17.1-3.8,25.8V741h-75.5V563.5c0-42.7-17-73-52.9-73
	c-28.9,0-48.4,22.7-55.4,44.1c-3.1,7.6-4.4,16.4-4.4,25.2V741H37.9V525.7L37.9,525.7z M784.1,667.4c0,27.7,1.3,54.7,4.4,73.6h-69.9
	l-5-34h-1.9c-18.9,23.9-51,40.9-90.6,40.9c-61.7,0-96.3-44.6-96.3-91.3c0-77.5,68.6-116.5,181.9-115.8v-5c0-20.2-8.2-53.5-62.4-53.5
	c-30.2,0-61.7,9.5-82.5,22.6l-15.1-50.4c22.7-13.9,62.3-27.1,110.8-27.1c98.2,0,126.6,62.4,126.6,129L784.1,667.4L784.1,667.4z
	 M708.6,591.3c-54.8-1.3-107,10.7-107,57.3c0,30.2,19.6,44.1,44.1,44.1c30.8,0,53.5-20.2,60.4-42.2c1.7-5.5,2.5-11.2,2.5-17
	L708.6,591.3L708.6,591.3L708.6,591.3z M837.6,525.7c0-35.3-0.6-64.8-2.5-91.3H903l3.8,46h1.9c13.2-24,46.6-53,97.6-53
	c53.5,0,108.9,34.6,108.9,131.6V741h-77.4V568c0-44.1-16.4-77.5-58.5-77.5c-30.8,0-52.3,22.1-60.4,45.4c-2.5,6.9-3.1,16.4-3.1,25.1
	V741h-78.1L837.6,525.7L837.6,525.7z M1450.8,311.3v343.5c0,31.5,1.3,65.5,2.5,86.2h-69.2l-3.2-48.4h-1.3
	c-18.2,34-55.4,55.4-100.1,55.4c-73,0-130.9-62.3-130.9-156.7c-0.7-102.6,63.5-163.7,137.2-163.7c42.2,0,72.4,17.6,86.2,40.4h1.3
	V311.4L1450.8,311.3L1450.8,311.3L1450.8,311.3z M1373.5,562.3c0-6.2-0.6-13.8-1.9-20.2c-6.9-30.2-31.4-54.7-66.7-54.7
	c-49.7,0-77.5,44.1-77.5,101.3c0,56,27.7,96.9,76.8,96.9c31.4,0,59.1-21.4,66.7-54.8c1.9-6.9,2.6-14.5,2.6-22.6L1373.5,562.3
	L1373.5,562.3z M1505.6,741V434.5h78.1V741L1505.6,741L1505.6,741z M1638.4,533.3c0-41.5-0.6-71.2-2.5-98.8h67.3l2.5,58.5h2.6
	c15.1-43.4,51-58.5,83.8-58.5c7.5,0,11.9-1.3,18.2,0v68c-7.4-1.6-15-2.5-22.6-2.5c-37.2,0-62.4,23.9-69.3,58.5
	c-1.5,7.9-2.4,15.9-2.5,24v158.6h-77.5L1638.4,533.3L1638.4,533.3z M1846.2,741V434.5h78V741L1846.2,741L1846.2,741z"/>
<path class="st0" d="M2410.1,162.9c-38.6-34.3-79.7-18.8-112.4-6.2c-13.7,5.3-112.9,49.1-112.9,49.1c-54.3,17.4-96.6-1.6-113.2-17.6
	c-1.6-1.5-3-3.1-4.3-4.8l-3.9-5.2c-6.5-8.8-13.8-17.3-21.7-25.3c-4.8-4.9-10-9.5-15.6-13.9c-37.2-29.2-96.6-49.7-195.8-12.5
	c-47,21.2-200.1,89.3-200.1,89.3c-57.5,18.4-101.5-4-115.8-20.5c-0.6-0.6-1.2-1.3-1.7-2l-1.9-2.5l-9.7-12.4
	c-4.4-5.4-9.1-10.7-14.1-15.7c-4.9-4.9-10.1-9.5-15.7-13.9c-36.9-29.1-96-49.5-194.4-13c-59.5,26.5-197.9,88.1-197.9,88.1l-0.1,0
	L977.7,269l52.4,50.1c22.1,16.4,63.5,43.2,127.6,20.6c0,0,177-79.8,177.7-80.1c151.3-64.7,226-2.9,259,38.3c1.1,1.3,2.1,2.7,3.1,3.9
	l0.1,0.1c0.4,0.5,0.7,1,1,1.4l3.7,4.8c16.1,19,41.5,31.3,71.7,30.7c16.7-0.3,28-4.5,44.5-11.6l171.2-77.4l0.4-0.1
	c153.2-65.5,229.1,0.4,261.6,41.6c2.5,3.6,5.4,7,8.3,10.1c16.1,17,38.2,28.1,66.3,27.5c18.6-0.3,39.4-9,42.5-10.6l205.3-92.3
	C2474.2,226.1,2453.3,201.4,2410.1,162.9L2410.1,162.9z"/>
</svg>
